<svg xmlns="http://www.w3.org/2000/svg" viewBox="0 0 720 400"><defs><linearGradient id="bg" x2="1" y2="1"><stop stop-color="#e7f1ec"/><stop offset="1" stop-color="#f8f2e7"/></linearGradient><filter id="s" x="-30%" y="-30%" width="160%" height="160%"><feDropShadow dy="9" stdDeviation="9" flood-color="#315b50" flood-opacity=".12"/></filter></defs><rect width="720" height="400" fill="url(#bg)"/><circle cx="652" cy="29" r="170" fill="#d9e9df"/><circle cx="59" cy="408" r="145" fill="#eee2c9"/><ellipse cx="353" cy="350" rx="226" ry="14" fill="#315b50" opacity=".07"/><g filter="url(#s)"><rect x="230" y="58" width="225" height="285" rx="22" fill="#fffdf8"/><rect x="280" y="43" width="125" height="35" rx="12" fill="#478b7b"/><path d="M305 135h100M305 192h100M305 249h100" stroke="#aac5bd" stroke-width="11" stroke-linecap="round"/><path d="m254 127 13 13 23-28m-36 72 13 13 23-28m-36 72 13 13 23-28" fill="none" stroke="#cfaa68" stroke-width="9" stroke-linecap="round" stroke-linejoin="round"/><path d="M438 113v63a55 55 0 0 0 110 0v-63" fill="none" stroke="#478b7b" stroke-width="15" stroke-linecap="round"/><path d="M493 231v41a31 31 0 0 1-62 0v-19" fill="none" stroke="#478b7b" stroke-width="13"/><circle cx="431" cy="246" r="25" fill="#ddbb81"/><circle cx="431" cy="246" r="13" fill="#fffdf8"/></g><path d="M90 278q38-24 28-75-49 11-28 75m0 0q-33-10-41-41 38-7 41 41" fill="#8eb6a0"/><path d="M90 278v53" stroke="#6c9980" stroke-width="5"/><rect x="70" y="319" width="40" height="29" rx="8" fill="#d3b88a"/></svg>