<svg xmlns="http://www.w3.org/2000/svg" viewBox="0 0 720 400"><defs><linearGradient id="bg" x2="1" y2="1"><stop stop-color="#e7f1ec"/><stop offset="1" stop-color="#f8f2e7"/></linearGradient><filter id="s" x="-30%" y="-30%" width="160%" height="160%"><feDropShadow dy="9" stdDeviation="9" flood-color="#315b50" flood-opacity=".12"/></filter></defs><rect width="720" height="400" fill="url(#bg)"/><circle cx="652" cy="29" r="170" fill="#d9e9df"/><circle cx="59" cy="408" r="145" fill="#eee2c9"/><ellipse cx="353" cy="350" rx="226" ry="14" fill="#315b50" opacity=".07"/><g filter="url(#s)"><path d="M160 222h360m-332 0v112m300-112v112" stroke="#478b7b" stroke-width="17" stroke-linecap="round"/><rect x="249" y="110" width="151" height="105" rx="10" fill="#b4d1c9"/><rect x="263" y="125" width="123" height="70" rx="5" fill="#fffdf8"/><path d="M332 215v-20m-49 16h96" stroke="#478b7b" stroke-width="10"/><path d="M431 99h51v165h-106v-34h55z" fill="#ddbb81"/><path d="M398 264v66m-35 0h70" stroke="#478b7b" stroke-width="12" stroke-linecap="round"/></g><path d="M90 278q38-24 28-75-49 11-28 75m0 0q-33-10-41-41 38-7 41 41" fill="#8eb6a0"/><path d="M90 278v53" stroke="#6c9980" stroke-width="5"/><rect x="70" y="319" width="40" height="29" rx="8" fill="#d3b88a"/></svg>